<svg xmlns="http://www.w3.org/2000/svg" version="1.1" xmlns:xlink="http://www.w3.org/1999/xlink" xmlns:svgjs="http://svgjs.dev/svgjs" width="1500" height="200" viewBox="0 0 1500 200"><g transform="matrix(1,0,0,1,-0.9090909090909918,-0.7375059580359675)"><svg viewBox="0 0 396 53" data-background-color="#ffffff" preserveAspectRatio="xMidYMid meet" height="200" width="1500" xmlns="http://www.w3.org/2000/svg" xmlns:xlink="http://www.w3.org/1999/xlink"><g id="tight-bounds" transform="matrix(1,0,0,1,0.2400000000000091,0.19543907887953083)"><svg viewBox="0 0 395.52 52.60912184224093" height="52.60912184224093" width="395.52"><g><svg viewBox="0 0 395.52 52.60912184224093" height="52.60912184224093" width="395.52"><g><svg viewBox="0 0 395.52 52.60912184224093" height="52.60912184224093" width="395.52"><g id="textblocktransform"><svg viewBox="0 0 395.52 52.60912184224093" height="52.60912184224093" width="395.52" id="textblock"><g><svg viewBox="0 0 395.52 52.60912184224093" height="52.60912184224093" width="395.52"><g transform="matrix(1,0,0,1,0,0)"><svg width="395.52" viewBox="0.9 -38.55 290.93 38.699999999999996" height="52.60912184224093" data-palette-color="#2d4f8f"><g class="wordmark-text-0" data-fill-palette-color="primary" id="text-0"><path d="M17 0.15L17 0.15Q14.2 0.15 11.38-0.43 8.55-1 6.18-2.13 3.8-3.25 2.35-4.88 0.9-6.5 0.9-8.65L0.9-8.65Q0.9-11.4 2.65-13.05 4.4-14.7 6.75-14.6L6.75-14.6Q8.6-14.55 10.45-13.83 12.3-13.1 14.23-12.4 16.15-11.7 18.1-11.7L18.1-11.7Q20.05-11.7 20.8-12.2 21.55-12.7 21.55-13.55L21.55-13.55Q21.55-14.55 20.5-15.2 19.45-15.85 17.85-16.2L17.85-16.2 15.4-16.8Q11.6-17.7 8.6-18.82 5.6-19.95 3.88-21.83 2.15-23.7 2.15-26.85L2.15-26.85Q2.15-30.3 4.05-32.48 5.95-34.65 9.2-35.65 12.45-36.65 16.45-36.65L16.45-36.65Q20.55-36.65 23.65-35.8 26.75-34.95 28.48-33.35 30.2-31.75 30.2-29.45L30.2-29.45Q30.2-27 28.88-25.63 27.55-24.25 25.35-24.25L25.35-24.25Q23.9-24.25 22.33-24.75 20.75-25.25 19.03-25.73 17.3-26.2 15.35-26.2L15.35-26.2Q13.6-26.2 12.7-25.68 11.8-25.15 11.8-24.3L11.8-24.3Q11.8-23.25 13-22.75 14.2-22.25 16.95-21.55L16.95-21.55 19.75-20.9Q23.2-20.05 25.8-18.85 28.4-17.65 29.85-15.7 31.3-13.75 31.3-10.6L31.3-10.6Q31.3-6.8 29.5-4.42 27.7-2.05 24.5-0.95 21.3 0.15 17 0.15ZM38.4 0L38.4 0Q36.2 0 34.87-1.33 33.55-2.65 33.55-4.6L33.55-4.6 33.55-21.15Q33.55-23.25 34.8-24.7 36.05-26.15 38.4-26.15L38.4-26.15Q40.7-26.15 41.9-24.7 43.1-23.25 43.1-21.05L43.1-21.05 43.1-18.55 44-18.55Q44-21.4 45.02-23.05 46.05-24.7 47.65-25.43 49.25-26.15 50.85-26.15L50.85-26.15Q54.7-26.15 56.5-23.38 58.3-20.6 58.3-15.5L58.3-15.5 58.3-4.6Q58.3-2.65 57-1.33 55.7 0 53.5 0L53.5 0Q51.25 0 49.92-1.33 48.6-2.65 48.6-4.6L48.6-4.6 48.6-13.45Q48.6-15.25 47.92-16.25 47.25-17.25 45.95-17.25L45.95-17.25Q44.45-17.25 43.77-16.15 43.1-15.05 43.1-13.35L43.1-13.35 43.1-4.6Q43.1-2.65 41.85-1.33 40.6 0 38.4 0ZM60.7-13L60.7-13Q60.7-16.95 62.27-19.95 63.85-22.95 66.77-24.65 69.7-26.35 73.75-26.35L73.75-26.35Q76.9-26.35 79.42-25.2 81.95-24.05 83.4-22.13 84.85-20.2 84.85-17.9L84.85-17.9Q84.85-15.5 83.45-14.5 82.05-13.5 79.3-13.5L79.3-13.5 68.8-13.5Q68.8-12.2 69.82-11.35 70.85-10.5 73.3-10.5L73.3-10.5Q74.55-10.5 75.62-10.75 76.7-11 77.82-11.23 78.95-11.45 80.35-11.45L80.35-11.45Q82.35-11.45 83.65-10.03 84.95-8.6 84.95-6.1L84.95-6.1Q84.95-3.15 81.92-1.5 78.9 0.15 74 0.15L74 0.15Q70.55 0.15 67.52-1.2 64.5-2.55 62.6-5.48 60.7-8.4 60.7-13ZM68.95-15.15L76.9-15.15Q77.65-15.15 77.4-15.85L77.4-15.85Q77.2-16.55 76.2-17.3 75.2-18.05 73.3-18.05L73.3-18.05Q71.1-18.05 70.02-17.1 68.95-16.15 68.95-15.15L68.95-15.15ZM94.59 0L94.59 0Q90.89 0 88.82-2 86.74-4 86.74-7.6L86.74-7.6Q86.74-11.2 89.14-12.83 91.54-14.45 95.29-14.45L95.29-14.45Q97.49-14.45 99.29-14.15 101.09-13.85 102.54-13.3L102.54-13.3 102.69-13.3 102.69-14.05Q102.69-15.2 101.84-15.88 100.99-16.55 99.69-16.5L99.69-16.5Q98.44-16.5 97.57-16.35 96.69-16.2 95.39-15.85L95.39-15.85Q92.99-15.25 91.24-15.95 89.49-16.65 88.84-18.7L88.84-18.7Q88.24-20.85 89.12-22.3 89.99-23.75 91.79-24.55L91.79-24.55Q93.34-25.3 95.27-25.8 97.19-26.3 99.44-26.3L99.44-26.3Q105.99-26.3 109.07-23.13 112.14-19.95 112.14-12.5L112.14-12.5 112.14-4.75Q112.14-2.7 110.89-1.35 109.64 0 107.44 0L107.44 0Q105.04 0 103.87-1.35 102.69-2.7 102.69-4.65L102.69-4.65 102.69-5.8 101.69-5.8Q101.69-4.5 101.22-3.15 100.74-1.8 99.27-0.9 97.79 0 94.59 0ZM95.09-10.95L95.09-10.95Q95.09-10.1 95.72-9.75 96.34-9.4 98.44-9.4L98.44-9.4Q100.34-9.4 101.09-9.75 101.84-10.1 101.84-10.95L101.84-10.95Q101.84-11.75 101.09-12.08 100.34-12.4 98.44-12.4L98.44-12.4Q96.34-12.4 95.72-12.08 95.09-11.75 95.09-10.95ZM119.54 0L119.54 0Q117.34 0 116.04-1.33 114.74-2.65 114.74-4.6L114.74-4.6 114.74-33.55Q114.74-35.65 116.02-37.1 117.29-38.55 119.64-38.55L119.64-38.55Q121.94-38.55 123.12-37.1 124.29-35.65 124.29-33.5L124.29-33.5 124.29-18.35 124.44-18.3Q124.69-20.4 125.74-22.18 126.79-23.95 128.69-25.05 130.59-26.15 133.34-26.15L133.34-26.15Q137.04-26.15 139.29-24.1 141.54-22.05 141.54-18.5L141.54-18.5Q141.54-16.05 140.57-14.63 139.59-13.2 137.94-12.65 136.29-12.1 134.29-12.15L134.29-12.15 134.29-11.3Q138.74-11.3 140.62-9.53 142.49-7.75 142.49-5.05L142.49-5.05Q142.49-2.55 140.99-1.2 139.49 0.15 137.39 0.1L137.39 0.1Q135.09 0.05 133.59-1.25 132.09-2.55 131.09-4.75L131.09-4.75 128.94-9.3Q128.29-10.65 127.27-11.25 126.24-11.85 124.29-11.7L124.29-11.7 124.29-4.6Q124.29-2.65 123.02-1.33 121.74 0 119.54 0ZM125.34-15.1L125.34-15.1Q125.34-14.4 126.07-14.08 126.79-13.75 129.09-13.75L129.09-13.75Q131.34-13.75 132.09-14.05 132.84-14.35 132.84-15.1L132.84-15.1Q132.84-15.8 132.09-16.15 131.34-16.5 129.14-16.5L129.14-16.5Q126.79-16.5 126.07-16.15 125.34-15.8 125.34-15.1ZM144.34-13L144.34-13Q144.34-16.95 145.91-19.95 147.49-22.95 150.41-24.65 153.34-26.35 157.39-26.35L157.39-26.35Q160.54-26.35 163.06-25.2 165.59-24.05 167.04-22.13 168.49-20.2 168.49-17.9L168.49-17.9Q168.49-15.5 167.09-14.5 165.69-13.5 162.94-13.5L162.94-13.5 152.44-13.5Q152.44-12.2 153.46-11.35 154.49-10.5 156.94-10.5L156.94-10.5Q158.19-10.5 159.26-10.75 160.34-11 161.46-11.23 162.59-11.45 163.99-11.45L163.99-11.45Q165.99-11.45 167.29-10.03 168.59-8.6 168.59-6.1L168.59-6.1Q168.59-3.15 165.56-1.5 162.54 0.15 157.64 0.15L157.64 0.15Q154.19 0.15 151.16-1.2 148.14-2.55 146.24-5.48 144.34-8.4 144.34-13ZM152.59-15.15L160.54-15.15Q161.29-15.15 161.04-15.85L161.04-15.85Q160.84-16.55 159.84-17.3 158.84-18.05 156.94-18.05L156.94-18.05Q154.74-18.05 153.66-17.1 152.59-16.15 152.59-15.15L152.59-15.15ZM175.79 0L175.79 0Q173.44 0 172.14-1.35 170.84-2.7 170.84-4.75L170.84-4.75 170.84-21.15Q170.84-23.3 172.14-24.73 173.44-26.15 175.79-26.15L175.79-26.15Q178.14-26.15 179.39-24.73 180.64-23.3 180.64-21.25L180.64-21.25 180.64-20.2 181.59-20.2Q181.79-22.85 183.59-24.55 185.39-26.25 187.84-26.25L187.84-26.25Q190.29-26.25 191.71-24.75 193.14-23.25 193.14-20.75L193.14-20.75Q193.14-18.4 191.79-16.85 190.44-15.3 188.34-15.3L188.34-15.3Q186.59-15.3 185.41-16.13 184.24-16.95 183.69-18.05L183.69-18.05Q182.09-18.25 181.36-17.73 180.64-17.2 180.64-15.65L180.64-15.65 180.64-4.75Q180.64-2.7 179.39-1.35 178.14 0 175.79 0ZM200.48-0.15L200.48-0.15Q198.18-0.15 196.68-1.55 195.18-2.95 195.18-5.1L195.18-5.1 195.18-31.55Q195.18-33.75 196.63-35.23 198.08-36.7 200.43-36.7L200.43-36.7Q202.93-36.7 204.33-35.23 205.73-33.75 205.73-31.65L205.73-31.65 205.73-22.4 215.03-22.4 215.03-31.55Q215.03-33.75 216.48-35.23 217.93-36.7 220.38-36.7L220.38-36.7Q222.83-36.7 224.23-35.23 225.63-33.75 225.63-31.65L225.63-31.65 225.63-5.1Q225.63-2.95 224.16-1.55 222.68-0.15 220.48-0.15L220.48-0.15Q218.08-0.15 216.56-1.55 215.03-2.95 215.03-5.1L215.03-5.1 215.03-15.05 205.73-15.05 205.73-5.1Q205.73-2.95 204.26-1.55 202.78-0.15 200.48-0.15ZM243.98 0.15L243.98 0.15Q240.98 0.1 238.26-0.65 235.53-1.4 233.38-3.1 231.23-4.8 230.01-7.65 228.78-10.5 228.78-14.7L228.78-14.7 228.78-31.65Q228.78-34.05 230.36-35.23 231.93-36.4 234.03-36.4L234.03-36.4Q236.08-36.4 237.68-35.23 239.28-34.05 239.28-31.65L239.28-31.65 239.28-17.05Q239.28-13.5 240.96-11.85 242.63-10.2 245.28-10.35L245.28-10.35Q248.08-10.55 249.31-12.5 250.53-14.45 249.98-17.7L249.98-17.7Q249.63-19.9 249.21-21.4 248.78-22.9 248.36-24.08 247.93-25.25 247.63-26.43 247.33-27.6 247.18-29.2L247.18-29.2Q246.88-32.55 248.56-34.48 250.23-36.4 252.98-36.4L252.98-36.4Q255.73-36.4 257.28-34.55 258.83-32.7 258.83-28.95L258.83-28.95 258.83-14.7Q258.83-10.5 257.66-7.63 256.48-4.75 254.41-3.03 252.33-1.3 249.66-0.58 246.98 0.15 243.98 0.15ZM280.68 0L272.78-0.05Q270.48-0.15 268.5-0.7 266.53-1.25 265.03-2.58 263.53-3.9 262.7-6.25 261.88-8.6 261.88-12.25L261.88-12.25Q261.88-15.8 262.85-18.4 263.83-21 265.18-22.55 266.53-24.1 267.63-24.45L267.63-24.45 267.38-25.4 266.53-25.4Q264.23-25.4 262.9-26.88 261.58-28.35 261.53-30.85L261.53-30.85Q261.48-33.35 262.85-34.88 264.23-36.4 266.53-36.4L266.53-36.4 280.28-36.4Q285.68-36.4 288.08-33.83 290.48-31.25 290.48-27.15L290.48-27.15Q290.48-23.85 288.95-21.65 287.43-19.45 284.38-19L284.38-19 284.38-18.25Q287.68-18.1 289.75-15.98 291.83-13.85 291.83-9.7L291.83-9.7Q291.83-5.2 289.23-2.58 286.63 0.05 280.68 0L280.68 0ZM271.43-24.65L271.43-22.5Q271.43-21.4 271.83-21.05 272.23-20.7 273.33-20.7L273.33-20.7 277.93-20.7Q279.83-20.7 280.83-21.28 281.83-21.85 281.83-23.55L281.83-23.55Q281.83-25.3 280.83-25.85 279.83-26.4 277.93-26.4L277.93-26.4 273.33-26.4Q272.23-26.4 271.83-26.1 271.43-25.8 271.43-24.65L271.43-24.65ZM271.43-15.1L271.43-12.45Q271.43-11.35 271.85-10.95 272.28-10.55 273.43-10.55L273.43-10.55 278.58-10.55Q280.53-10.55 281.58-11.25 282.63-11.95 282.63-13.75L282.63-13.75Q282.63-15.55 281.58-16.23 280.53-16.9 278.58-16.9L278.58-16.9 273.43-16.9Q272.28-16.9 271.85-16.55 271.43-16.2 271.43-15.1L271.43-15.1Z" fill="#2d4f8f" data-fill-palette-color="primary"></path></g></svg></g></svg></g></svg></g></svg></g></svg></g><defs></defs></svg><rect width="395.52" height="52.60912184224093" fill="none" stroke="none" visibility="hidden"></rect></g></svg></g></svg>